# File created by Blade
# Date/Time:  Tue Jan 27 18:50:13 2015
#---------------------------------------------------------
:version 1.10
:name HOM
:units
  mass 1.0
  length 1.000000
  angle deg
:documentation
     Acclaim Skeleton File
:root
   axis xyz
   order TX TY TZ RX RY RZ
   position 0.000000 0.000000 0.000000
   orientation 0 0 0
:bonedata
   begin
      id 1
      name Spine_dum
      direction 0.000000 1.000000 0.000000
      length 5.195262
      axis 0.0 0.0 0.0 xyz
   end
   begin
      id 2
      name LeftUpLeg_dum
      direction 1.000000 0.000000 0.000000
      length 3.351363
      axis 0.0 0.0 0.0 xyz
   end
   begin
      id 3
      name RightUpLeg_dum
      direction -1.000000 0.000000 0.000000
      length 3.351363
      axis 0.0 0.0 0.0 xyz
   end
   begin
      id 4
      name Spine
      direction 0.000000 1.000000 0.000000
      length 0.000000
      axis 0.0 0.0 0.0 xyz
      dof rx ry rz
   end
   begin
      id 5
      name Spine_dum1
      direction 0.000000 1.000000 0.000000
      length 15.653875
      axis 0.0 0.0 0.0 xyz
   end
   begin
      id 6
      name Spine_dum2
      direction 0.000000 1.000000 0.000000
      length 10.329768
      axis 0.0 0.0 0.0 xyz
   end
   begin
      id 7
      name Spine_dum3
      direction 0.000000 1.000000 0.000000
      length 10.329768
      axis 0.0 0.0 0.0 xyz
   end
   begin
      id 8
      name Head
      direction 0.000000 1.000000 0.000000
      length 4.527550
      axis 0.0 0.0 0.0 xyz
      dof rx ry rz
   end
   begin
      id 9
      name LeftShoulder
      direction 1.000000 0.000000 0.000000
      length 6.996006
      axis 0.0 0.0 -90.0 xyz
      dof rx ry rz
   end
   begin
      id 10
      name LeftArm
      direction 1.000000 0.000000 0.000000
      length 10.209302
      axis 0.0 0.0 -90.0 xyz
      dof rx ry rz
   end
   begin
      id 11
      name LeftForeArm
      direction 1.000000 0.000000 0.000000
      length 8.563163
      axis 0.0 0.0 -90.0 xyz
      dof ry rz rx
   end
   begin
      id 12
      name LeftHand
      direction 0.000000 0.000000 0.000000
      length 0.000000
      axis 0.0 0.0 -90.0 xyz
      dof rx ry rz
   end
   begin
      id 13
      name LeftHand_dum1
      direction 0.000000 0.000000 0.000000
      length 0.000000
      axis 0.0 0.0 -90.0 xyz
   end
   begin
      id 14
      name LeftHand_dum2
      direction 1.000000 0.000000 0.000000
      length 3.937000
      axis 0.0 0.0 -90.0 xyz
   end
   begin
      id 15
      name LeftHandThumb1
      direction 0.000000 0.000000 1.000000
      length 3.937000
      axis 0.0 0.0 -90.0 xyz
      dof rx rz ry
   end
   begin
      id 16
      name RightShoulder
      direction -1.000000 0.000000 0.000000
      length 6.996006
      axis 0.0 0.0 90.0 xyz
      dof rx ry rz
   end
   begin
      id 17
      name RightArm
      direction -1.000000 0.000000 0.000000
      length 10.209302
      axis 0.0 0.0 90.0 xyz
      dof rx ry rz
   end
   begin
      id 18
      name RightForeArm
      direction -1.000000 0.000000 0.000000
      length 8.563163
      axis 0.0 0.0 90.0 xyz
      dof ry rz rx
   end
   begin
      id 19
      name RightHand
      direction 0.000000 0.000000 0.000000
      length 0.000000
      axis 0.0 0.0 90.0 xyz
      dof rx ry rz
   end
   begin
      id 20
      name RightHand_dum1
      direction 0.000000 0.000000 0.000000
      length 0.000000
      axis 0.0 0.0 90.0 xyz
   end
   begin
      id 21
      name RightHand_dum2
      direction -1.000000 0.000000 0.000000
      length 3.937000
      axis 0.0 0.0 90.0 xyz
   end
   begin
      id 22
      name RightHandThumb1
      direction 0.000000 0.000000 1.000000
      length 3.937000
      axis 0.0 0.0 90.0 xyz
      dof rx rz ry
   end
   begin
      id 23
      name LeftUpLeg
      direction 0.000000 -1.000000 0.000000
      length 16.346831
      axis 0.0 0.0 0.0 xyz
      dof rx ry rz
   end
   begin
      id 24
      name LeftLeg
      direction 0.000000 -1.000000 0.000000
      length 13.959795
      axis 0.0 0.0 0.0 xyz
      dof rx ry rz
   end
   begin
      id 25
      name LeftFoot
      direction 0.000000 -0.258819 0.965926
      length 5.165550
      axis 15.0 0.0 0.0 xyz
      dof rx ry rz
   end
   begin
      id 26
      name LeftToeBase
      direction 0.000000 0.000000 1.000000
      length 2.952750
      axis 0.0 0.0 0.0 xyz
      dof rx ry rz
   end
   begin
      id 27
      name RightUpLeg
      direction 0.000000 -1.000000 0.000000
      length 16.346831
      axis 0.0 0.0 0.0 xyz
      dof rx ry rz
   end
   begin
      id 28
      name RightLeg
      direction 0.000000 -1.000000 0.000000
      length 13.959795
      axis 0.0 0.0 0.0 xyz
      dof rx ry rz
   end
   begin
      id 29
      name RightFoot
      direction 0.000000 -0.258819 0.965926
      length 5.165550
      axis 15.0 0.0 0.0 xyz
      dof rx ry rz
   end
   begin
      id 30
      name RightToeBase
      direction 0.000000 0.000000 1.000000
      length 2.952750
      axis 0.0 0.0 0.0 xyz
      dof rx ry rz
   end
:hierarchy
   begin
      root Spine_dum LeftUpLeg_dum RightUpLeg_dum
      Spine_dum Spine
      LeftUpLeg_dum LeftUpLeg
      RightUpLeg_dum RightUpLeg
      Spine Spine_dum1 Spine_dum2 Spine_dum3
      Spine_dum1 Head
      Spine_dum2 LeftShoulder
      Spine_dum3 RightShoulder
      LeftShoulder LeftArm
      LeftArm LeftForeArm
      LeftForeArm LeftHand
      LeftHand LeftHand_dum1 LeftHand_dum2
      LeftHand_dum1 LeftHandThumb1
      RightShoulder RightArm
      RightArm RightForeArm
      RightForeArm RightHand
      RightHand RightHand_dum1 RightHand_dum2
      RightHand_dum1 RightHandThumb1
      LeftUpLeg LeftLeg
      LeftLeg LeftFoot
      LeftFoot LeftToeBase
      RightUpLeg RightLeg
      RightLeg RightFoot
      RightFoot RightToeBase
   end

# File created by Blade
# Date/Time:  Tue Jan 27 18:50:05 2015
# Frame Rate: 120.000 fps
#------------------------------------------------------
:FULLY-SPECIFIED
:DEGREES
668
root -2.297311 31.924284 -6.087546 -9.515349 45.846410 -11.409668
Spine 7.183844 -10.383597 -3.035717
Head 8.065850 2.257112 11.886273
LeftShoulder -9.275390 7.339631 17.903797
LeftArm 28.380954 -15.696428 -71.477949
LeftForeArm -12.459477 -0.000000 103.448364
LeftHand -8.784832 -0.000000 13.104345
LeftHandThumb1 -26.253704 0.000000 33.147579
RightShoulder -10.376160 0.999637 -9.890259
RightArm 19.899943 -37.672116 66.218541
RightForeArm -29.647131 -0.000000 31.077677
RightHand -13.244978 0.000000 12.090518
RightHandThumb1 -24.326973 -0.000000 -32.862282
LeftUpLeg -5.397348 -8.320954 1.149654
LeftLeg 24.684962 -0.000000 -0.000000
LeftFoot -23.972215 2.861029 -20.271233
LeftToeBase 10.724594 -0.000000 -0.000000
RightUpLeg -76.803836 4.972417 9.295143
RightLeg 83.867927 -0.000000 -0.000000
RightFoot -0.624675 -4.407426 20.757070
RightToeBase 8.089214 -0.000000 -0.000000
669
root -2.309266 31.936393 -6.087108 -9.382432 45.931769 -11.398837
Spine 7.163673 -10.411998 -3.109336
Head 8.014549 2.242907 12.039577
LeftShoulder -9.213606 7.281439 17.929140
LeftArm 28.329595 -15.917986 -71.537859
LeftForeArm -12.519303 -0.000000 103.468181
LeftHand -8.814657 0.000000 12.956271
LeftHandThumb1 -26.253704 0.000000 33.147579
RightShoulder -10.423378 1.010218 -9.810606
RightArm 20.000317 -37.908657 66.303036
RightForeArm -29.617100 -0.000000 30.718211
RightHand -13.081732 -0.000000 12.143468
RightHandThumb1 -24.326973 -0.000000 -32.862282
LeftUpLeg -5.501297 -8.440309 1.180909
LeftLeg 24.568153 -0.000000 -0.000000
LeftFoot -23.822658 2.865282 -20.261973
LeftToeBase 10.650422 -0.000000 -0.000000
RightUpLeg -76.630018 5.133955 9.068766
RightLeg 84.408578 -0.000000 -0.000000
RightFoot -0.465314 -3.721627 20.896687
RightToeBase 7.890641 -0.000000 -0.000000
670
root -2.326773 31.948093 -6.087384 -9.261003 46.044150 -11.405618
Spine 7.165026 -10.476135 -3.190821
Head 7.951779 2.250351 12.223723
LeftShoulder -9.159008 7.264587 17.959887
LeftArm 28.365556 -16.190739 -71.667283
LeftForeArm -12.522930 -0.000000 103.445932
LeftHand -8.844034 0.000000 13.047693
LeftHandThumb1 -26.253704 0.000000 33.147579
RightShoulder -10.305674 1.014581 -9.761851
RightArm 19.823730 -37.875244 66.626403
RightForeArm -29.657784 0.000000 30.554925
RightHand -13.009523 -0.000000 12.271127
RightHandThumb1 -24.326973 -0.000000 -32.862282
LeftUpLeg -5.633662 -8.525631 1.237221
LeftLeg 24.480255 -0.000000 -0.000000
LeftFoot -23.661030 2.761154 -20.338747
LeftToeBase 10.577716 -0.000000 -0.000000
RightUpLeg -76.455091 5.276706 8.876542
RightLeg 84.816637 -0.000000 -0.000000
RightFoot -0.281195 -3.065264 20.677363
RightToeBase 7.760009 -0.000000 -0.000000
671
root -2.341281 31.957737 -6.086915 -9.160304 46.186672 -11.408803
Spine 7.198774 -10.580223 -3.277916
Head 7.872742 2.280213 12.357323
LeftShoulder -9.168205 7.324642 18.045465
LeftArm 28.470247 -16.421630 -71.956347
LeftForeArm -12.561233 0.000000 103.377803
LeftHand -8.670446 -0.000000 13.118110
LeftHandThumb1 -26.253704 0.000000 33.147579
RightShoulder -10.255222 1.042950 -9.723946
RightArm 19.745297 -38.024817 66.819102
RightForeArm -29.671798 -0.000000 30.385503
RightHand -12.881845 -0.000000 12.417791
RightHandThumb1 -24.326973 -0.000000 -32.862282
LeftUpLeg -5.744478 -8.578983 1.275667
LeftLeg 24.399061 -0.000000 -0.000000
LeftFoot -23.517277 2.688658 -20.288768
LeftToeBase 10.521594 -0.000000 -0.000000
RightUpLeg -76.284589 5.360689 8.715728
RightLeg 85.150573 -0.000000 -0.000000
RightFoot -0.168515 -2.561578 20.642716
RightToeBase 7.997326 -0.000000 -0.000000
672
root -2.358116 31.965750 -6.087837 -9.071245 46.334281 -11.428757
Spine 7.258636 -10.726417 -3.344372
Head 7.741653 2.366837 12.457905
LeftShoulder -9.232061 7.238440 18.044858
LeftArm 28.562178 -16.656638 -72.115344
LeftForeArm -12.551382 0.000000 103.304841
LeftHand -8.683949 -0.000000 12.994702
LeftHandThumb1 -26.253704 0.000000 33.147579
RightShoulder -10.192694 1.200566 -9.728394
RightArm 19.559489 -38.234638 67.080695
RightForeArm -29.615992 0.000000 30.228085
RightHand -12.828825 -0.000000 12.383359
RightHandThumb1 -24.326973 -0.000000 -32.862282
LeftUpLeg -5.867210 -8.600643 1.328075
LeftLeg 24.328275 -0.000000 -0.000000
LeftFoot -23.380749 2.577113 -20.261104
LeftToeBase 10.487082 -0.000000 -0.000000
RightUpLeg -76.120798 5.438475 8.582067
RightLeg 85.381118 -0.000000 -0.000000
RightFoot -0.049837 -2.149890 20.483284
RightToeBase 7.954168 -0.000000 -0.000000
673
root -2.373377 31.972651 -6.089419 -8.945002 46.508108 -11.428633
Spine 7.267455 -10.846907 -3.428035
Head 7.671006 2.291635 12.491656
LeftShoulder -9.208498 7.241436 18.033363
LeftArm 28.711823 -16.924262 -72.249141
LeftForeArm -12.566595 0.000000 103.283288
LeftHand -8.767022 -0.000000 12.984515
LeftHandThumb1 -26.253704 0.000000 33.147579
RightShoulder -10.153948 1.200974 -9.709151
RightArm 19.511799 -38.423485 67.209601
RightForeArm -29.471889 -0.000000 30.138685
RightHand -12.763504 -0.000000 12.550540
RightHandThumb1 -24.326973 -0.000000 -32.862282
LeftUpLeg -6.011597 -8.617770 1.362331
LeftLeg 24.250307 -0.000000 -0.000000
LeftFoot -23.236534 2.466069 -20.217632
LeftToeBase 10.432396 -0.000000 -0.000000
RightUpLeg -75.999444 5.464392 8.483437
RightLeg 85.548169 -0.000000 -0.000000
RightFoot 0.010406 -1.860115 20.272439
RightToeBase 7.973358 -0.000000 -0.000000
674
root -2.389458 31.977908 -6.093822 -8.816673 46.695260 -11.437139
Spine 7.253022 -10.953911 -3.475125
Head 7.654316 2.309607 12.541873
LeftShoulder -9.167744 7.146588 18.067198
LeftArm 28.745745 -17.096763 -72.390341
LeftForeArm -12.588890 -0.000000 103.235303
LeftHand -8.766179 0.000000 12.789163
LeftHandThumb1 -26.253704 0.000000 33.147579
RightShoulder -10.111274 1.297991 -9.756876
RightArm 19.290598 -38.620102 67.465697
RightForeArm -29.473203 -0.000000 30.041793
RightHand -12.717558 0.000000 12.473631
RightHandThumb1 -24.326973 -0.000000 -32.862282
LeftUpLeg -6.170183 -8.603289 1.395777
LeftLeg 24.170041 -0.000000 -0.000000
LeftFoot -23.080184 2.383330 -20.079829
LeftToeBase 10.352397 -0.000000 -0.000000
RightUpLeg -75.901540 5.425348 8.461290
RightLeg 85.658573 -0.000000 -0.000000
RightFoot -0.042706 -1.727119 20.095379
RightToeBase 7.808427 -0.000000 -0.000000
675
root -2.404381 31.981790 -6.099608 -8.659064 46.889325 -11.413642
Spine 7.231866 -11.045303 -3.548475
Head 7.609147 2.207540 12.511535
LeftShoulder -9.148223 7.124585 18.100232
LeftArm 28.912800 -17.195211 -72.533498
LeftForeArm -12.487639 -0.000000 103.177887
LeftHand -8.824664 -0.000000 12.830489
LeftHandThumb1 -26.253704 0.000000 33.147579
RightShoulder -10.078472 1.248281 -9.768612
RightArm 19.219992 -38.750947 67.580816
RightForeArm -29.400575 -0.000000 30.028954
RightHand -12.633547 -0.000000 12.739812
RightHandThumb1 -24.326973 -0.000000 -32.862282
LeftUpLeg -6.326912 -8.588140 1.400016
LeftLeg 24.072185 -0.000000 -0.000000
LeftFoot -22.936812 2.307637 -19.931471
LeftToeBase 10.280810 -0.000000 -0.000000
RightUpLeg -75.835161 5.375409 8.471379
RightLeg 85.743317 -0.000000 -0.000000
RightFoot -0.210440 -1.793116 19.911922
RightToeBase 7.676727 -0.000000 -0.000000
676
root -2.417639 31.985166 -6.107404 -8.499751 47.086791 -11.381522
Spine 7.225365 -11.125100 -3.616687
Head 7.559565 2.127843 12.496230
LeftShoulder -9.122692 7.097174 18.149210
LeftArm 29.075740 -17.256592 -72.700299
LeftForeArm -12.382177 -0.000000 103.148713
LeftHand -8.846324 -0.000000 12.819189
LeftHandThumb1 -26.253704 0.000000 33.147579
RightShoulder -10.073619 1.149144 -9.767618
RightArm 19.332293 -39.053493 67.486431
RightForeArm -29.257563 -0.000000 29.986173
RightHand -12.604746 -0.000000 12.659048
RightHandThumb1 -24.326973 -0.000000 -32.862282
LeftUpLeg -6.477239 -8.607194 1.389210
LeftLeg 23.971448 -0.000000 -0.000000
LeftFoot -22.795937 2.269108 -19.793372
LeftToeBase 10.138705 -0.000000 -0.000000
RightUpLeg -75.779377 5.261645 8.587531
RightLeg 85.801622 -0.000000 -0.000000
RightFoot -0.450685 -2.104612 19.872009
RightToeBase 7.647173 -0.000000 -0.000000
677
root -2.428736 31.987488 -6.116207 -8.344564 47.283229 -11.346460
Spine 7.215183 -11.203718 -3.675283
Head 7.521074 2.090845 12.464306
LeftShoulder -9.125434 7.053351 18.175464
LeftArm 29.240833 -17.242453 -72.805387
LeftForeArm -12.307913 -0.000000 103.121742
LeftHand -8.900924 -0.000000 12.805315
LeftHandThumb1 -26.253704 0.000000 33.147579
RightShoulder -10.048250 1.098312 -9.773163
RightArm 19.318183 -39.256549 67.485560
RightForeArm -29.143306 -0.000000 29.986108
RightHand -12.562765 -0.000000 12.672486
RightHandThumb1 -24.326973 -0.000000 -32.862282
LeftUpLeg -6.617716 -8.629440 1.366736
LeftLeg 23.869305 -0.000000 -0.000000
LeftFoot -22.673591 2.252360 -19.641695
LeftToeBase 10.009347 -0.000000 -0.000000
RightUpLeg -75.745137 5.074314 8.816380
RightLeg 85.856034 -0.000000 -0.000000
RightFoot -0.807408 -2.592265 19.744443
RightToeBase 7.595048 -0.000000 -0.000000
